<svg id="Capa_1" enable-background="new 0 0 512 512" height="512" viewBox="0 0 512 512" width="512" xmlns="http://www.w3.org/2000/svg"><g><path d="m512 256c0 141.384-114.616 256-256 256-33.949 0-66.348-6.607-95.995-18.61v-474.78c29.647-12.003 62.046-18.61 95.995-18.61 141.384 0 256 114.616 256 256z" fill="#ffeb37"/><path d="m256 0v512c141.384 0 256-114.616 256-256s-114.616-256-256-256z" fill="#ffd354"/><path d="m320 256c0 107.435-66.178 199.414-159.995 237.39-93.817-37.976-160.005-129.955-160.005-237.39s66.188-199.414 160.005-237.39c93.817 37.976 159.995 129.955 159.995 237.39z" fill="#203c5a"/><g><path d="m165.63 165.556c7.846 0 15.363-6.899 15-15-.364-8.127-6.591-15-15-15-7.846 0-15.363 6.899-15 15 .364 8.127 6.591 15 15 15z" fill="#314f72"/></g><g><path d="m116.124 304.049c7.846 0 15.363-6.899 15-15-.364-8.127-6.591-15-15-15-7.846 0-15.363 6.899-15 15 .364 8.127 6.591 15 15 15z" fill="#314f72"/></g><path d="m256 425.321c39.827-45.128 64-104.399 64-169.321s-24.173-124.193-64-169.321z" fill="#082633"/><g><path d="m414.062 316.188c-33.188 0-60.188-27-60.188-60.188s27-60.188 60.188-60.188 60.188 27 60.188 60.188-27 60.188-60.188 60.188z" fill="#ffbd44"/></g><g><path d="m385 394c7.846 0 15.363-6.899 15-15-.364-8.127-6.591-15-15-15-7.846 0-15.363 6.899-15 15 .364 8.127 6.591 15 15 15z" fill="#ffbd44"/></g><g><path d="m361.438 135c7.846 0 15.363-6.899 15-15-.364-8.127-6.591-15-15-15-7.846 0-15.363 6.899-15 15 .364 8.127 6.59 15 15 15z" fill="#ffbd44"/></g></g></svg>