<svg id="Capa_1" enable-background="new 0 0 512 512" height="512" viewBox="0 0 512 512" width="512" xmlns="http://www.w3.org/2000/svg"><g><path d="m0 256c0-141.384 114.616-256 256-256 33.949 0 66.348 6.607 95.995 18.61v474.78c-29.647 12.003-62.046 18.61-95.995 18.61-141.384 0-256-114.616-256-256z" fill="#ffd354"/><path d="m256 512v-512c-141.384 0-256 114.616-256 256s114.616 256 256 256z" fill="#ffeb37"/><path d="m192 256c0-107.435 66.178-199.414 159.995-237.39 93.817 37.976 160.005 129.955 160.005 237.39s-66.188 199.414-160.005 237.39c-93.817-37.976-159.995-129.955-159.995-237.39z" fill="#082633"/><path d="m256 86.679c-39.827 45.128-64 104.399-64 169.321s24.173 124.193 64 169.321z" fill="#203c5a"/><g><path d="m132.656 394.125c-24.882 0-45.125-20.243-45.125-45.125s20.243-45.125 45.125-45.125 45.125 20.243 45.125 45.125-20.243 45.125-45.125 45.125z" fill="#ffd354"/></g><g><path d="m138.469 195.688c-24.882 0-45.125-20.243-45.125-45.125s20.243-45.125 45.125-45.125 45.125 20.243 45.125 45.125-20.243 45.125-45.125 45.125z" fill="#ffd354"/></g><g><path d="m376.5 155.556c7.846 0 15.363-6.899 15-15-.364-8.127-6.591-15-15-15-7.846 0-15.363 6.899-15 15 .364 8.127 6.591 15 15 15z" fill="#203c5a"/></g><g><path d="m385 394c7.846 0 15.363-6.899 15-15-.364-8.127-6.591-15-15-15-7.846 0-15.363 6.899-15 15 .364 8.127 6.591 15 15 15z" fill="#203c5a"/></g><g><path d="m78.331 294.049c7.846 0 15.363-6.899 15-15-.364-8.127-6.591-15-15-15-7.846 0-15.363 6.899-15 15 .364 8.127 6.591 15 15 15z" fill="#ffd354"/></g></g></svg>